# xmcd
#
# Track frame offsets:
#	225
#	15381
#	23074
#	30809
#	38438
#	45201
#	55839
#	71533
#	85183
#	97830
#	104820
#	114463
#	127362
#	146160
#	162189
#
# Disc length: 2407 seconds
#
# Revision: 0
# Processed by: cddbd v1.4PL0 Copyright (c) Steve Scherf et al.
# Submitted via: dBpowerAMP V4.0
#
DISCID=b609640f
DTITLE=Zaïko Langa Langa -  Greatest Hits
DYEAR=1900
DGENRE=Cult
TTITLE0=sentiment awa
TTITLE1=muvaro
TTITLE2=sos mawa
TTITLE3=zizita
TTITLE4=kabobo
TTITLE5=pa oki
TTITLE6=deception b
TTITLE7=exil
TTITLE8=amie mamibo
TTITLE9=masudi
TTITLE10=perserver
TTITLE11=mukaji
TTITLE12=reviens shaaly
TTITLE13=ou-est-tu lomas
TTITLE14=poisspn
EXTD=
EXTT0=
EXTT1=
EXTT2=
EXTT3=
EXTT4=
EXTT5=
EXTT6=
EXTT7=
EXTT8=
EXTT9=
EXTT10=
EXTT11=
EXTT12=
EXTT13=
EXTT14=
PLAYORDER=
